<mxfile host="app.diagrams.net" modified="2023-11-14T06:22:57.242Z" agent="Mozilla/5.0 (X11; Linux x86_64) AppleWebKit/537.36 (KHTML, like Gecko) Chrome/113.0.0.0 Safari/537.36" version="22.1.0" etag="TnjAMvwoYlxTw3wmo8zD" type="github">
  <diagram name="Page-1" id="P-MnKtyIKvMYZn0ecdSF">
    <mxGraphModel>
      <root>
        <mxCell id="0" />
        <mxCell id="1" parent="0" />
      </root>
    </mxGraphModel>
  </diagram>
</mxfile>
